<svg width="25" height="23" viewBox="0 0 25 23" fill="none" xmlns="http://www.w3.org/2000/svg">
<g clip-path="url(#clip0_347_1785)">
<path d="M7.29167 15.0938C7.86892 15.0938 8.33333 15.5744 8.33333 16.1719C8.33333 16.7693 7.86892 17.25 7.29167 17.25H5.20833C4.63108 17.25 4.16667 16.7693 4.16667 16.1719C4.16667 15.5744 4.63108 15.0938 5.20833 15.0938H7.29167ZM15.625 15.0938C16.2023 15.0938 16.6667 15.5744 16.6667 16.1719C16.6667 16.7693 16.2023 17.25 15.625 17.25H10.7639C10.1866 17.25 9.72222 16.7693 9.72222 16.1719C9.72222 15.5744 10.1866 15.0938 10.7639 15.0938H15.625ZM22.2222 1.4375C23.7543 1.4375 25 2.72451 25 4.3125V18.6875C25 20.2732 23.7543 21.5625 22.2222 21.5625H2.77778C1.24349 21.5625 0 20.2732 0 18.6875V4.3125C0 2.72451 1.24349 1.4375 2.77778 1.4375H22.2222ZM22.2222 3.59375H2.77778C2.3941 3.59375 2.08333 3.91539 2.08333 4.3125V5.75H22.9167V4.3125C22.9167 3.91539 22.6042 3.59375 22.2222 3.59375ZM22.9167 10.0625H2.08333V18.6875C2.08333 19.0828 2.3941 19.4062 2.77778 19.4062H22.2222C22.6042 19.4062 22.9167 19.0828 22.9167 18.6875V10.0625Z" fill="#6F6FC8"/>
</g>
<defs>
<clipPath id="clip0_347_1785">
<rect width="25" height="23" fill="white"/>
</clipPath>
</defs>
</svg>
