<svg width="20" height="20" viewBox="0 0 20 20" fill="none" xmlns="http://www.w3.org/2000/svg">
<path d="M19.6 10.2222C19.6 9.40001 19.5333 8.80001 19.3889 8.1778H10V11.8889H15.5111C15.4 12.8111 14.8 14.2 13.4666 15.1333L13.448 15.2575L16.4165 17.5573L16.6222 17.5778C18.5111 15.8333 19.6 13.2667 19.6 10.2222Z" fill="#4285F4"/>
<path d="M10 20C12.7 20 14.9666 19.1111 16.6222 17.5778L13.4667 15.1333C12.6222 15.7222 11.4889 16.1333 10 16.1333C7.3556 16.1333 5.11117 14.3889 4.31109 11.9778L4.19382 11.9877L1.10703 14.3766L1.06667 14.4889C2.71109 17.7555 6.08888 20 10 20Z" fill="#34A853"/>
<path d="M4.31107 11.9778C4.09996 11.3556 3.97779 10.6888 3.97779 9.99999C3.97779 9.31106 4.09996 8.64442 4.29996 8.0222L4.29437 7.88969L1.1689 5.46242L1.06664 5.51106C0.388893 6.86663 0 8.38888 0 9.99999C0 11.6111 0.388893 13.1333 1.06664 14.4888L4.31107 11.9778Z" fill="#FBBC05"/>
<path d="M10 3.86664C11.8778 3.86664 13.1444 4.67775 13.8667 5.35557L16.6889 2.6C14.9556 0.988893 12.7 0 10 0C6.08888 0 2.71109 2.24443 1.06667 5.51107L4.29999 8.02222C5.11117 5.61111 7.3556 3.86664 10 3.86664Z" fill="#EB4335"/>
</svg>
