<svg width="20" height="20" viewBox="0 0 20 20" fill="none" xmlns="http://www.w3.org/2000/svg">
<circle cx="10" cy="10" r="10" fill="#6F6FC8"/>
<path fill-rule="evenodd" clip-rule="evenodd" d="M14.0267 6.90166C14.1929 6.73692 14.4172 6.6442 14.6512 6.64356C14.8852 6.64291 15.1101 6.73439 15.2772 6.89821C15.4443 7.06203 15.5402 7.28503 15.5442 7.519C15.5481 7.75297 15.4599 7.97911 15.2985 8.14853L10.558 14.0742C10.4765 14.1619 10.3782 14.2323 10.2689 14.2812C10.1595 14.3301 10.0415 14.3564 9.92178 14.3587C9.80205 14.3609 9.68311 14.3389 9.57206 14.2941C9.46102 14.2493 9.36014 14.1826 9.27548 14.0979L6.13454 10.9558C6.04704 10.8742 5.97685 10.7759 5.92818 10.6667C5.8795 10.5574 5.85332 10.4395 5.85121 10.3199C5.8491 10.2003 5.8711 10.0815 5.91589 9.97064C5.96069 9.85974 6.02736 9.759 6.11193 9.67443C6.1965 9.58985 6.29724 9.52318 6.40814 9.47839C6.51904 9.43359 6.63783 9.4116 6.75741 9.41371C6.877 9.41582 6.99493 9.44199 7.10418 9.49067C7.21343 9.53935 7.31175 9.60953 7.39329 9.69703L9.87992 12.1825L14.0041 6.92778C14.0115 6.91858 14.0194 6.90986 14.0279 6.90166H14.0267Z" fill="white"/>
</svg>
