<svg width="14" height="14" viewBox="0 0 14 14" fill="none" xmlns="http://www.w3.org/2000/svg">
<path d="M1.50497 11.0891L1.4933 11.1007C1.3358 10.7566 1.23663 10.3657 1.1958 9.93408C1.23663 10.3599 1.34747 10.7449 1.50497 11.0891Z" fill="#292D32"/>
<path d="M5.24991 6.05499C6.01666 6.05499 6.63824 5.43341 6.63824 4.66665C6.63824 3.8999 6.01666 3.27832 5.24991 3.27832C4.48315 3.27832 3.86157 3.8999 3.86157 4.66665C3.86157 5.43341 4.48315 6.05499 5.24991 6.05499Z" fill="#292D32"/>
<path d="M9.44425 1.1665H4.55591C2.43258 1.1665 1.16675 2.43234 1.16675 4.55567V9.444C1.16675 10.0798 1.27758 10.634 1.49341 11.1007C1.99508 12.209 3.06841 12.8332 4.55591 12.8332H9.44425C11.5676 12.8332 12.8334 11.5673 12.8334 9.444V8.10817V4.55567C12.8334 2.43234 11.5676 1.1665 9.44425 1.1665ZM11.8826 7.2915C11.4276 6.90067 10.6926 6.90067 10.2376 7.2915L7.81091 9.374C7.35591 9.76484 6.62091 9.76484 6.16591 9.374L5.96758 9.21067C5.55341 8.849 4.89425 8.814 4.42758 9.129L2.24591 10.5932C2.11758 10.2665 2.04175 9.88734 2.04175 9.444V4.55567C2.04175 2.91067 2.91091 2.0415 4.55591 2.0415H9.44425C11.0892 2.0415 11.9584 2.91067 11.9584 4.55567V7.35567L11.8826 7.2915Z" fill="#292D32"/>
</svg>
