<svg width="24" height="24" viewBox="0 0 24 24" fill="none" xmlns="http://www.w3.org/2000/svg">
<path fill-rule="evenodd" clip-rule="evenodd" d="M16.3034 2.75049H7.65437C4.63937 2.75049 2.75037 4.88449 2.75037 7.90449V16.0535C2.75037 19.0735 4.63137 21.2075 7.65437 21.2075H16.3024C19.3264 21.2075 21.2074 19.0735 21.2074 16.0535V7.90449C21.2074 4.88449 19.3264 2.75049 16.3034 2.75049Z" stroke="#F5EDFE" stroke-opacity="0.3" stroke-width="1.5" stroke-linecap="round" stroke-linejoin="round"/>
<path fill-rule="evenodd" clip-rule="evenodd" d="M10.7032 8.78545C10.7032 9.80445 9.87621 10.6315 8.85721 10.6315C7.83921 10.6315 7.01221 9.80445 7.01221 8.78545C7.01221 7.76645 7.83921 6.93945 8.85721 6.93945C9.87621 6.93945 10.7032 7.76645 10.7032 8.78545Z" stroke="#F5EDFE" stroke-opacity="0.3" stroke-width="1.5" stroke-linecap="round" stroke-linejoin="round"/>
<path d="M21.2066 14.9505C20.2126 14.0855 19.3476 13.0445 18.2076 12.3575C17.0656 11.6705 15.8386 12.0945 15.0466 13.1195C14.2816 14.1105 13.8036 15.4435 12.6486 16.0685C11.2256 16.8395 10.3896 15.5965 9.20263 15.0985C7.87763 14.5435 6.87163 15.5415 6.09763 16.5005C5.32263 17.4605 4.53763 18.4105 3.74963 19.3605" stroke="#F5EDFE" stroke-opacity="0.3" stroke-width="1.5" stroke-linecap="round" stroke-linejoin="round"/>
</svg>
