<svg width="32" height="32" viewBox="0 0 32 32" fill="none" xmlns="http://www.w3.org/2000/svg">
<circle cx="16" cy="16" r="16" fill="#D8D8D8"/>
<mask id="mask0_226_1867" style="mask-type:luminance" maskUnits="userSpaceOnUse" x="0" y="0" width="32" height="32">
<circle cx="16" cy="16" r="16" fill="white"/>
</mask>
<g mask="url(#mask0_226_1867)">
<rect y="0.110352" width="60" height="31.579" fill="#EDEDFF"/>
<rect y="0.110352" width="60" height="2.4292" fill="#B22234"/>
<rect y="4.96875" width="60" height="2.4292" fill="#B22234"/>
<rect y="9.82715" width="60" height="2.4292" fill="#B22234"/>
<rect y="14.6855" width="60" height="2.4292" fill="#B22234"/>
<rect y="19.5435" width="60" height="2.4292" fill="#B22234"/>
<rect y="24.4019" width="60" height="2.4292" fill="#B22234"/>
<rect y="29.2603" width="60" height="2.4292" fill="#B22234"/>
<rect y="0.110352" width="24" height="17.004" fill="#3C3B6E"/>
<path d="M1.12756 1.49085L1.69936 1.90625L1.48096 2.57845L2.05256 2.16305L2.62436 2.57845L2.40596 1.90625L2.97756 1.49085H2.27096L2.05256 0.818848L1.83416 1.49085H1.12756Z" fill="#EDEDFF"/>
<path d="M5.10657 1.49085L5.67817 1.90625L5.45977 2.57845L6.03157 2.16305L6.60337 2.57845L6.38497 1.90625L6.95657 1.49085H6.24997L6.03157 0.818848L5.81317 1.49085H5.10657Z" fill="#EDEDFF"/>
<path d="M9.08557 1.49085L9.65717 1.90625L9.43877 2.57845L10.0106 2.16305L10.5822 2.57845L10.3638 1.90625L10.9356 1.49085H10.229L10.0106 0.818848L9.79217 1.49085H9.08557Z" fill="#EDEDFF"/>
<path d="M13.0646 1.49085L13.6362 1.90625L13.4178 2.57845L13.9896 2.16305L14.5612 2.57845L14.3428 1.90625L14.9146 1.49085H14.2078L13.9896 0.818848L13.7712 1.49085H13.0646Z" fill="#EDEDFF"/>
<path d="M17.0435 1.49085L17.6153 1.90625L17.3969 2.57845L17.9685 2.16305L18.5403 2.57845L18.3219 1.90625L18.8935 1.49085H18.1869L17.9685 0.818848L17.7501 1.49085H17.0435Z" fill="#EDEDFF"/>
<path d="M21.0225 1.49085L21.5941 1.90625L21.3757 2.57845L21.9475 2.16305L22.5191 2.57845L22.3007 1.90625L22.8725 1.49085H22.1659L21.9475 0.818848L21.7291 1.49085H21.0225Z" fill="#EDEDFF"/>
<path d="M3.11694 3.19613L3.68874 3.61153L3.47034 4.28353L4.04214 3.86813L4.61374 4.28353L4.39534 3.61153L4.96714 3.19613H4.26034L4.04214 2.52393L3.82374 3.19613H3.11694Z" fill="#EDEDFF"/>
<path d="M7.09595 3.19613L7.66775 3.61153L7.44935 4.28353L8.02095 3.86813L8.59275 4.28353L8.37435 3.61153L8.94595 3.19613H8.23935L8.02095 2.52393L7.80255 3.19613H7.09595Z" fill="#EDEDFF"/>
<path d="M11.075 3.19613L11.6468 3.61153L11.4284 4.28353L12 3.86813L12.5718 4.28353L12.3534 3.61153L12.925 3.19613H12.2184L12 2.52393L11.7816 3.19613H11.075Z" fill="#EDEDFF"/>
<path d="M15.054 3.19613L15.6256 3.61153L15.4072 4.28353L15.979 3.86813L16.5506 4.28353L16.3322 3.61153L16.904 3.19613H16.1974L15.979 2.52393L15.7606 3.19613H15.054Z" fill="#EDEDFF"/>
<path d="M19.0328 3.19613L19.6046 3.61153L19.3862 4.28353L19.9578 3.86813L20.5296 4.28353L20.3112 3.61153L20.8828 3.19613H20.1762L19.9578 2.52393L19.7396 3.19613H19.0328Z" fill="#EDEDFF"/>
<path d="M1.12756 4.90149L1.69936 5.31689L1.48096 5.98909L2.05256 5.57369L2.62436 5.98909L2.40596 5.31689L2.97756 4.90149H2.27096L2.05256 4.22949L1.83416 4.90149H1.12756Z" fill="#EDEDFF"/>
<path d="M5.10657 4.90149L5.67817 5.31689L5.45977 5.98909L6.03157 5.57369L6.60337 5.98909L6.38497 5.31689L6.95657 4.90149H6.24997L6.03157 4.22949L5.81317 4.90149H5.10657Z" fill="#EDEDFF"/>
<path d="M9.08557 4.90149L9.65717 5.31689L9.43877 5.98909L10.0106 5.57369L10.5822 5.98909L10.3638 5.31689L10.9356 4.90149H10.229L10.0106 4.22949L9.79217 4.90149H9.08557Z" fill="#EDEDFF"/>
<path d="M13.0646 4.90149L13.6362 5.31689L13.4178 5.98909L13.9896 5.57369L14.5612 5.98909L14.3428 5.31689L14.9146 4.90149H14.2078L13.9896 4.22949L13.7712 4.90149H13.0646Z" fill="#EDEDFF"/>
<path d="M17.0435 4.90149L17.6153 5.31689L17.3969 5.98909L17.9685 5.57369L18.5403 5.98909L18.3219 5.31689L18.8935 4.90149H18.1869L17.9685 4.22949L17.7501 4.90149H17.0435Z" fill="#EDEDFF"/>
<path d="M21.0225 4.90149L21.5941 5.31689L21.3757 5.98909L21.9475 5.57369L22.5191 5.98909L22.3007 5.31689L22.8725 4.90149H22.1659L21.9475 4.22949L21.7291 4.90149H21.0225Z" fill="#EDEDFF"/>
<path d="M3.16626 6.61214L3.73786 7.02754L3.51966 7.69954L4.09126 7.28414L4.66306 7.69954L4.44466 7.02734L5.01626 6.61214H4.30966L4.09126 5.93994L3.87286 6.61214H3.16626Z" fill="#EDEDFF"/>
<path d="M7.14514 6.61214L7.71674 7.02754L7.49834 7.69954L8.07014 7.28414L8.64174 7.69954L8.42334 7.02734L8.99514 6.61214H8.28854L8.07014 5.93994L7.85174 6.61214H7.14514Z" fill="#EDEDFF"/>
<path d="M11.1241 6.61214L11.6957 7.02754L11.4773 7.69954L12.0491 7.28414L12.6207 7.69954L12.4023 7.02734L12.9741 6.61214H12.2673L12.0491 5.93994L11.8307 6.61214H11.1241Z" fill="#EDEDFF"/>
<path d="M15.103 6.61214L15.6748 7.02754L15.4564 7.69954L16.028 7.28414L16.5998 7.69954L16.3814 7.02734L16.953 6.61214H16.2464L16.028 5.93994L15.8096 6.61214H15.103Z" fill="#EDEDFF"/>
<path d="M19.082 6.61214L19.6536 7.02754L19.4352 7.69954L20.007 7.28414L20.5786 7.69954L20.3602 7.02734L20.932 6.61214H20.2254L20.007 5.93994L19.7886 6.61214H19.082Z" fill="#EDEDFF"/>
<path d="M1.18799 8.30355L1.75979 8.71875L1.54139 9.39095L2.11299 8.97555L2.68479 9.39095L2.46639 8.71875L3.03799 8.30355H2.33139L2.11299 7.63135L1.89459 8.30355H1.18799Z" fill="#EDEDFF"/>
<path d="M5.16699 8.30355L5.73859 8.71875L5.52019 9.39095L6.09199 8.97555L6.66359 9.39095L6.44539 8.71875L7.01699 8.30355H6.31039L6.09199 7.63135L5.87359 8.30355H5.16699Z" fill="#EDEDFF"/>
<path d="M9.146 8.30355L9.7176 8.71875L9.4992 9.39095L10.071 8.97555L10.6426 9.39095L10.4242 8.71875L10.996 8.30355H10.2894L10.071 7.63135L9.8526 8.30355H9.146Z" fill="#EDEDFF"/>
<path d="M13.1248 8.30355L13.6966 8.71875L13.4782 9.39095L14.0498 8.97555L14.6216 9.39095L14.4032 8.71875L14.975 8.30355H14.2682L14.0498 7.63135L13.8316 8.30355H13.1248Z" fill="#EDEDFF"/>
<path d="M17.1038 8.30355L17.6754 8.71875L17.4572 9.39095L18.0288 8.97555L18.6006 9.39095L18.3822 8.71875L18.9538 8.30355H18.2472L18.0288 7.63135L17.8104 8.30355H17.1038Z" fill="#EDEDFF"/>
<path d="M21.0828 8.30355L21.6544 8.71875L21.436 9.39095L22.0078 8.97555L22.5794 9.39095L22.361 8.71875L22.9328 8.30355H22.2262L22.0078 7.63135L21.7894 8.30355H21.0828Z" fill="#EDEDFF"/>
<path d="M1.22534 11.6598L1.79694 12.0752L1.57854 12.7474L2.15034 12.332L2.72194 12.7474L2.50354 12.0752L3.07534 11.6598H2.36874L2.15034 10.9878L1.93194 11.6598H1.22534Z" fill="#EDEDFF"/>
<path d="M5.20422 11.6598L5.77602 12.0752L5.55762 12.7474L6.12922 12.332L6.70102 12.7474L6.48262 12.0752L7.05422 11.6598H6.34762L6.12922 10.9878L5.91082 11.6598H5.20422Z" fill="#EDEDFF"/>
<path d="M9.18323 11.6598L9.75483 12.0752L9.53663 12.7474L10.1082 12.332L10.68 12.7474L10.4616 12.0752L11.0332 11.6598H10.3266L10.1082 10.9878L9.88983 11.6598H9.18323Z" fill="#EDEDFF"/>
<path d="M13.1622 11.6598L13.7338 12.0752L13.5154 12.7474L14.0872 12.332L14.6588 12.7474L14.4406 12.0752L15.0122 11.6598H14.3056L14.0872 10.9878L13.8688 11.6598H13.1622Z" fill="#EDEDFF"/>
<path d="M17.141 11.6598L17.7128 12.0752L17.4944 12.7474L18.066 12.332L18.6378 12.7474L18.4194 12.0752L18.9912 11.6598H18.2844L18.066 10.9878L17.8478 11.6598H17.141Z" fill="#EDEDFF"/>
<path d="M21.12 11.6598L21.6916 12.0752L21.4734 12.7474L22.045 12.332L22.6168 12.7474L22.3984 12.0752L22.97 11.6598H22.2634L22.045 10.9878L21.8266 11.6598H21.12Z" fill="#EDEDFF"/>
<path d="M1.17676 15.0558L1.74836 15.4712L1.52996 16.1434L2.10176 15.728L2.67336 16.1434L2.45496 15.4712L3.02676 15.0558H2.31996L2.10176 14.3838L1.88336 15.0558H1.17676Z" fill="#EDEDFF"/>
<path d="M5.15564 15.0558L5.72744 15.4712L5.50904 16.1434L6.08064 15.728L6.65244 16.1434L6.43404 15.4712L7.00564 15.0558H6.29904L6.08064 14.3838L5.86224 15.0558H5.15564Z" fill="#EDEDFF"/>
<path d="M9.13464 15.0558L9.70624 15.4712L9.48804 16.1434L10.0596 15.728L10.6314 16.1434L10.413 15.4712L10.9846 15.0558H10.278L10.0596 14.3838L9.84124 15.0558H9.13464Z" fill="#EDEDFF"/>
<path d="M13.1136 15.0558L13.6852 15.4712L13.4668 16.1434L14.0386 15.728L14.6102 16.1434L14.392 15.4712L14.9636 15.0558H14.257L14.0386 14.3838L13.8202 15.0558H13.1136Z" fill="#EDEDFF"/>
<path d="M17.0924 15.0558L17.6642 15.4712L17.4458 16.1434L18.0174 15.728L18.5892 16.1434L18.3708 15.4712L18.9426 15.0558H18.2358L18.0174 14.3838L17.7992 15.0558H17.0924Z" fill="#EDEDFF"/>
<path d="M21.0714 15.0558L21.643 15.4712L21.4248 16.1434L21.9964 15.728L22.5682 16.1434L22.3498 15.4712L22.9214 15.0558H22.2148L21.9964 14.3838L21.778 15.0558H21.0714Z" fill="#EDEDFF"/>
<path d="M3.17798 9.96468L3.74958 10.3801L3.53138 11.0521L4.10298 10.6367L4.67478 11.0521L4.45638 10.3801L5.02798 9.96468H4.32138L4.10298 9.29248L3.88458 9.96468H3.17798Z" fill="#EDEDFF"/>
<path d="M7.15698 9.96468L7.72858 10.3801L7.51018 11.0521L8.08198 10.6367L8.65358 11.0521L8.43538 10.3801L9.00698 9.96468H8.30038L8.08198 9.29248L7.86358 9.96468H7.15698Z" fill="#EDEDFF"/>
<path d="M11.136 9.96468L11.7076 10.3801L11.4892 11.0521L12.061 10.6367L12.6326 11.0521L12.4142 10.3801L12.986 9.96468H12.2794L12.061 9.29248L11.8426 9.96468H11.136Z" fill="#EDEDFF"/>
<path d="M15.1147 9.96468L15.6865 10.3801L15.4681 11.0521L16.0397 10.6367L16.6115 11.0521L16.3931 10.3801L16.9647 9.96468H16.2581L16.0397 9.29248L15.8213 9.96468H15.1147Z" fill="#EDEDFF"/>
<path d="M19.0938 9.96468L19.6654 10.3801L19.4469 11.0521L20.0188 10.6367L20.5904 11.0521L20.3721 10.3801L20.9438 9.96468H20.2371L20.0188 9.29248L19.8004 9.96468H19.0938Z" fill="#EDEDFF"/>
<path d="M3.16626 13.3556L3.73806 13.771L3.51966 14.4432L4.09126 14.0278L4.66306 14.4432L4.44466 13.771L5.01626 13.3556H4.30966L4.09126 12.6836L3.87286 13.3556H3.16626Z" fill="#EDEDFF"/>
<path d="M7.14514 13.3556L7.71674 13.771L7.49834 14.4432L8.07014 14.0278L8.64194 14.4432L8.42354 13.771L8.99514 13.3556H8.28854L8.07014 12.6836L7.85174 13.3556H7.14514Z" fill="#EDEDFF"/>
<path d="M11.1241 13.3556L11.6957 13.771L11.4773 14.4432L12.0491 14.0278L12.6207 14.4432L12.4023 13.771L12.9741 13.3556H12.2675L12.0491 12.6836L11.8307 13.3556H11.1241Z" fill="#EDEDFF"/>
<path d="M15.103 13.3556L15.6748 13.771L15.4564 14.4432L16.028 14.0278L16.5998 14.4432L16.3814 13.771L16.953 13.3556H16.2464L16.028 12.6836L15.8096 13.3556H15.103Z" fill="#EDEDFF"/>
<path d="M19.082 13.3556L19.6536 13.771L19.4352 14.4432L20.007 14.0278L20.5786 14.4432L20.3604 13.771L20.932 13.3556H20.2254L20.007 12.6836L19.7886 13.3556H19.082Z" fill="#EDEDFF"/>
</g>
</svg>
