<svg width="14" height="14" viewBox="0 0 14 14" fill="none" xmlns="http://www.w3.org/2000/svg">
<g clip-path="url(#clip0_206_1658)">
<path d="M2.87383 5.54004C3.08437 4.94395 3.42617 4.3834 3.90742 3.90488C5.61641 2.1959 8.38633 2.1959 10.0953 3.90488L10.5629 4.3752H9.1875C8.70352 4.3752 8.3125 4.76621 8.3125 5.2502C8.3125 5.73418 8.70352 6.1252 9.1875 6.1252H12.6738H12.6848C13.1687 6.1252 13.5598 5.73418 13.5598 5.2502V1.7502C13.5598 1.26621 13.1687 0.875195 12.6848 0.875195C12.2008 0.875195 11.8098 1.26621 11.8098 1.7502V3.1502L11.3313 2.66895C8.93867 0.276367 5.06133 0.276367 2.66875 2.66895C2.00156 3.33613 1.52031 4.1209 1.225 4.96035C1.06367 5.41699 1.3043 5.91465 1.7582 6.07598C2.21211 6.2373 2.7125 5.99668 2.87383 5.54277V5.54004ZM1.06641 7.91074C0.929688 7.95176 0.798437 8.02559 0.691797 8.13496C0.582422 8.24434 0.508594 8.37559 0.470313 8.51777C0.462109 8.55059 0.453906 8.58613 0.448437 8.62168C0.440234 8.66816 0.4375 8.71465 0.4375 8.76113V12.2502C0.4375 12.7342 0.828516 13.1252 1.3125 13.1252C1.79648 13.1252 2.1875 12.7342 2.1875 12.2502V10.8529L2.66875 11.3314C5.06133 13.7213 8.93867 13.7213 11.3285 11.3314C11.9957 10.6643 12.4797 9.87949 12.775 9.04277C12.9363 8.58613 12.6957 8.08848 12.2418 7.92715C11.7879 7.76582 11.2875 8.00644 11.1262 8.46035C10.9156 9.05645 10.5738 9.61699 10.0926 10.0955C8.38359 11.8045 5.61367 11.8045 3.90469 10.0955L3.90195 10.0928L3.43438 9.6252H4.8125C5.29648 9.6252 5.6875 9.23418 5.6875 8.7502C5.6875 8.26621 5.29648 7.8752 4.8125 7.8752H1.32344C1.27969 7.8752 1.23594 7.87793 1.19219 7.8834C1.14844 7.88887 1.10742 7.89707 1.06641 7.91074Z" fill="#EDEDFF" fill-opacity="0.3"/>
</g>
<defs>
<clipPath id="clip0_206_1658">
<rect width="14" height="14" fill="white"/>
</clipPath>
</defs>
</svg>
