<svg width="16" height="16" viewBox="0 0 16 16" fill="none" xmlns="http://www.w3.org/2000/svg">
<path fill-rule="evenodd" clip-rule="evenodd" d="M10.97 4.97004C11.11 4.83131 11.2989 4.75323 11.4959 4.75269C11.693 4.75214 11.8823 4.82918 12.0231 4.96713C12.1638 5.10508 12.2445 5.29288 12.2479 5.4899C12.2513 5.68693 12.1769 5.87737 12.041 6.02004L8.04901 11.01C7.9804 11.0839 7.89759 11.1432 7.80554 11.1844C7.71348 11.2256 7.61408 11.2477 7.51326 11.2496C7.41244 11.2515 7.31228 11.233 7.21876 11.1953C7.12525 11.1575 7.0403 11.1013 6.96901 11.03L4.32401 8.38404C4.25032 8.31537 4.19122 8.23257 4.15022 8.14057C4.10923 8.04858 4.08719 7.94926 4.08541 7.84856C4.08364 7.74786 4.10216 7.64783 4.13988 7.55444C4.1776 7.46105 4.23375 7.37622 4.30497 7.305C4.37619 7.23378 4.46102 7.17763 4.55441 7.13991C4.6478 7.10219 4.74782 7.08367 4.84853 7.08544C4.94923 7.08722 5.04854 7.10926 5.14054 7.15026C5.23254 7.19125 5.31534 7.25035 5.384 7.32404L7.47801 9.41704L10.951 4.99204C10.9572 4.98429 10.9639 4.97694 10.971 4.97004H10.97Z" fill="#BC94FA"/>
</svg>
