<svg width="25" height="22" viewBox="0 0 25 22" fill="none" xmlns="http://www.w3.org/2000/svg">
<g clip-path="url(#clip0_347_1787)">
<path d="M5.35714 1.375V2.75H2.67857C1.19978 2.75 0 3.67383 0 4.8125V6.875H25V4.8125C25 3.67383 23.8002 2.75 22.3214 2.75H19.6429V1.375C19.6429 0.614453 18.8449 0 17.8571 0C16.8694 0 16.0714 0.614453 16.0714 1.375V2.75H8.92857V1.375C8.92857 0.614453 8.13058 0 7.14286 0C6.15513 0 5.35714 0.614453 5.35714 1.375ZM25 8.25H0V19.9375C0 21.0762 1.19978 22 2.67857 22H22.3214C23.8002 22 25 21.0762 25 19.9375V8.25Z" fill="#6F6FC8"/>
</g>
<defs>
<clipPath id="clip0_347_1787">
<rect width="25" height="22" fill="white"/>
</clipPath>
</defs>
</svg>
