<svg width="48" height="48" viewBox="0 0 48 48" fill="none" xmlns="http://www.w3.org/2000/svg">
<path opacity="0.4" d="M34.7806 14.5999V17.7599C33.8458 17.4419 32.8093 17.2599 31.7525 17.2599H31.7322V14.5999C31.7322 10.42 28.2773 6.99998 24.0096 6.99998H23.9892C19.7215 6.99998 16.2666 10.382 16.2463 14.5599V17.2599H16.2259C15.1692 17.2599 14.153 17.4419 13.1978 17.7599V14.5999C13.2182 8.72198 18.055 4 23.9689 4H24.0299C29.9438 4 34.7806 8.75998 34.7806 14.5999Z" fill="#4E5066"/>
<path fill-rule="evenodd" clip-rule="evenodd" d="M31.7531 17.2603C32.8099 17.2603 33.8464 17.4423 34.7812 17.7603C38.3987 19.0002 41 22.3622 41 26.3402V34.9202C41 39.9201 36.8542 44.0001 31.7531 44.0001H16.2265C11.1458 44.0001 7 39.9201 7 34.9202V26.3402C7 22.3622 9.60131 19.0002 13.1984 17.7603C14.1536 17.4423 15.1698 17.2603 16.2265 17.2603H31.7531ZM23.9898 34.6002C24.9857 34.6002 25.7782 33.8202 25.7782 32.8402V28.4002C25.7782 27.4422 24.9857 26.6602 23.9898 26.6602C23.0143 26.6602 22.2218 27.4422 22.2218 28.4002V32.8402C22.2218 33.8202 23.0143 34.6002 23.9898 34.6002Z" fill="#4E5066"/>
</svg>
