<svg width="21" height="21" viewBox="0 0 21 21" fill="none" xmlns="http://www.w3.org/2000/svg">
<g opacity="0.5">
<path d="M20.2326 10.5C20.2326 12.4249 19.6618 14.3066 18.5924 15.9072C17.5229 17.5077 16.0029 18.7551 14.2245 19.4918C12.4461 20.2284 10.4892 20.4211 8.60127 20.0456C6.71333 19.6701 4.97915 18.7431 3.61802 17.382C2.25688 16.0209 1.32994 14.2867 0.954409 12.3987C0.578874 10.5108 0.771612 8.5539 1.50825 6.7755C2.24489 4.99709 3.49234 3.47707 5.09286 2.40764C6.69338 1.3382 8.57508 0.767395 10.5 0.767395C13.0813 0.767395 15.5568 1.79279 17.382 3.61801C19.2072 5.44323 20.2326 7.91876 20.2326 10.5V10.5Z" stroke="white" stroke-width="1.5" stroke-linecap="round" stroke-linejoin="round"/>
<path d="M6.60679 12.4462C7.07868 13.0288 7.66979 13.5038 8.34042 13.8391C9.01104 14.1744 9.74566 14.3623 10.4949 14.3903C11.2442 14.3623 11.9788 14.1744 12.6494 13.8391C13.3201 13.5038 13.9112 13.0288 14.3831 12.4462" stroke="white" stroke-width="1.5" stroke-linecap="round" stroke-linejoin="round"/>
<path d="M7.57983 7.58002H7.59007" stroke="white" stroke-width="1.5" stroke-linecap="round" stroke-linejoin="round"/>
<path d="M13.4192 7.58002H13.4294" stroke="white" stroke-width="1.5" stroke-linecap="round" stroke-linejoin="round"/>
</g>
</svg>
