<svg width="24" height="24" viewBox="0 0 24 24" fill="none" xmlns="http://www.w3.org/2000/svg">
<path fill-rule="evenodd" clip-rule="evenodd" d="M12 3.75C7.30558 3.75 3.5 7.55558 3.5 12.25C3.5 16.9444 7.30558 20.75 12 20.75C13.9136 20.75 15.6796 20.1176 17.1002 19.0504C17.1142 19.0689 17.1296 19.0867 17.1464 19.1036L19.2678 21.2249L19.337 21.2827C19.5319 21.4177 19.8013 21.3984 19.9749 21.2249C20.1701 21.0296 20.1701 20.713 19.9749 20.5178L17.8622 18.4051C19.4873 16.8569 20.5 14.6717 20.5 12.25C20.5 7.55558 16.6944 3.75 12 3.75ZM12 4.75C16.1421 4.75 19.5 8.10786 19.5 12.25C19.5 16.3921 16.1421 19.75 12 19.75C7.85786 19.75 4.5 16.3921 4.5 12.25C4.5 8.10786 7.85786 4.75 12 4.75Z" fill="#EDEDFF" fill-opacity="0.6"/>
</svg>
