<svg width="39" height="39" viewBox="0 0 39 39" fill="none" xmlns="http://www.w3.org/2000/svg">
<mask id="mask0_592_9098" style="mask-type:luminance" maskUnits="userSpaceOnUse" x="19" y="13" width="12" height="2">
<path d="M19.24 13.3209H30.472V14.1009H19.24V13.3209Z" fill="white"/>
</mask>
<g mask="url(#mask0_592_9098)">
<path d="M30.0669 13.3209H19.6397C19.4341 13.3209 19.2676 13.4956 19.2676 13.7109C19.2676 13.9262 19.4341 14.1009 19.6397 14.1009H30.0669C30.2725 14.1009 30.439 13.9262 30.439 13.7109C30.439 13.4956 30.2725 13.3209 30.0669 13.3209Z" fill="#F5EDFE" fill-opacity="0.3"/>
</g>
<mask id="mask1_592_9098" style="mask-type:luminance" maskUnits="userSpaceOnUse" x="19" y="24" width="12" height="2">
<path d="M19.24 24.9226H30.472V25.7026H19.24V24.9226Z" fill="white"/>
</mask>
<g mask="url(#mask1_592_9098)">
<path d="M30.0669 24.9226H19.6397C19.4341 24.9226 19.2676 25.0973 19.2676 25.3126C19.2676 25.528 19.4341 25.7026 19.6397 25.7026H30.0669C30.2725 25.7026 30.439 25.528 30.439 25.3126C30.439 25.0973 30.2725 24.9226 30.0669 24.9226Z" fill="#F5EDFE" fill-opacity="0.3"/>
</g>
<mask id="mask2_592_9098" style="mask-type:luminance" maskUnits="userSpaceOnUse" x="8" y="21" width="9" height="9">
<path d="M8 21H16.658V29.658H8V21Z" fill="white"/>
</mask>
<g mask="url(#mask2_592_9098)">
<path d="M12.329 21C9.93741 21 8 22.937 8 25.329C8 27.7206 9.93741 29.658 12.329 29.658C14.7206 29.658 16.658 27.7206 16.658 25.329C16.658 22.937 14.7206 21 12.329 21ZM12.329 28.7923C10.4156 28.7923 8.86572 27.2424 8.86572 25.329C8.86572 23.4156 10.4156 21.8657 12.329 21.8657C14.2424 21.8657 15.7923 23.4156 15.7923 25.329C15.7923 27.2424 14.2424 28.7923 12.329 28.7923Z" fill="#F5EDFE" fill-opacity="0.3"/>
</g>
<circle cx="12.5" cy="13.5" r="4.5" fill="#F5EDFE" fill-opacity="0.3"/>
<path fill-rule="evenodd" clip-rule="evenodd" d="M14.1706 11.7956C14.2493 11.7176 14.3556 11.6737 14.4665 11.6734C14.5773 11.6731 14.6838 11.7164 14.763 11.794C14.8421 11.8716 14.8875 11.9772 14.8894 12.0881C14.8913 12.1989 14.8495 12.306 14.7731 12.3863L12.5276 15.1931C12.489 15.2347 12.4424 15.2681 12.3906 15.2912C12.3388 15.3144 12.2829 15.3268 12.2262 15.3279C12.1695 15.3289 12.1131 15.3185 12.0605 15.2973C12.0079 15.2761 11.9602 15.2445 11.9201 15.2044L10.4322 13.716C10.3908 13.6774 10.3576 13.6308 10.3345 13.5791C10.3114 13.5273 10.299 13.4714 10.298 13.4148C10.297 13.3582 10.3075 13.3019 10.3287 13.2494C10.3499 13.1968 10.3815 13.1491 10.4215 13.109C10.4616 13.069 10.5093 13.0374 10.5618 13.0162C10.6144 12.995 10.6706 12.9845 10.7273 12.9855C10.7839 12.9865 10.8398 12.9989 10.8915 13.022C10.9433 13.0451 10.9899 13.0783 11.0285 13.1198L12.2064 14.2971L14.1599 11.808C14.1634 11.8036 14.1672 11.7995 14.1712 11.7956H14.1706Z" fill="#343444"/>
</svg>
