<svg width="16" height="16" viewBox="0 0 16 16" fill="none" xmlns="http://www.w3.org/2000/svg">
<path fill-rule="evenodd" clip-rule="evenodd" d="M10.97 4.96979C11.11 4.83106 11.2989 4.75299 11.4959 4.75244C11.693 4.7519 11.8823 4.82893 12.0231 4.96689C12.1638 5.10484 12.2445 5.29263 12.2479 5.48966C12.2513 5.68669 12.1769 5.87712 12.041 6.01979L8.04901 11.0098C7.9804 11.0837 7.89759 11.143 7.80554 11.1842C7.71348 11.2253 7.61408 11.2475 7.51326 11.2494C7.41244 11.2512 7.31228 11.2328 7.21876 11.195C7.12525 11.1573 7.0403 11.1011 6.96901 11.0298L4.32401 8.38379C4.25032 8.31513 4.19122 8.23233 4.15022 8.14033C4.10923 8.04833 4.08719 7.94902 4.08541 7.84832C4.08364 7.74761 4.10216 7.64758 4.13988 7.55419C4.1776 7.46081 4.23375 7.37597 4.30497 7.30475C4.37619 7.23354 4.46102 7.17739 4.55441 7.13967C4.6478 7.10195 4.74782 7.08342 4.84853 7.0852C4.94923 7.08698 5.04854 7.10902 5.14054 7.15001C5.23254 7.191 5.31534 7.25011 5.384 7.32379L7.47801 9.41679L10.951 4.99179C10.9572 4.98405 10.9639 4.9767 10.971 4.96979H10.97Z" fill="#343444"/>
</svg>
