<svg width="14" height="15" viewBox="0 0 14 15" fill="none" xmlns="http://www.w3.org/2000/svg">
<path d="M1.50497 11.8813L1.4933 11.8938C1.3358 11.525 1.23663 11.1063 1.1958 10.6438C1.23663 11.1 1.34747 11.5125 1.50497 11.8813Z" fill="#6F6FC8"/>
<path d="M5.24991 6.48745C6.01666 6.48745 6.63824 5.82148 6.63824 4.99995C6.63824 4.17843 6.01666 3.51245 5.24991 3.51245C4.48315 3.51245 3.86157 4.17843 3.86157 4.99995C3.86157 5.82148 4.48315 6.48745 5.24991 6.48745Z" fill="#6F6FC8"/>
<path d="M9.44425 1.25H4.55591C2.43258 1.25 1.16675 2.60625 1.16675 4.88125V10.1188C1.16675 10.8 1.27758 11.3938 1.49341 11.8938C1.99508 13.0813 3.06841 13.75 4.55591 13.75H9.44425C11.5676 13.75 12.8334 12.3938 12.8334 10.1188V8.6875V4.88125C12.8334 2.60625 11.5676 1.25 9.44425 1.25ZM11.8826 7.8125C11.4276 7.39375 10.6926 7.39375 10.2376 7.8125L7.81091 10.0437C7.35591 10.4625 6.62091 10.4625 6.16591 10.0437L5.96758 9.86875C5.55341 9.48125 4.89425 9.44375 4.42758 9.78125L2.24591 11.35C2.11758 11 2.04175 10.5938 2.04175 10.1188V4.88125C2.04175 3.11875 2.91091 2.1875 4.55591 2.1875H9.44425C11.0892 2.1875 11.9584 3.11875 11.9584 4.88125V7.88125L11.8826 7.8125Z" fill="#6F6FC8"/>
</svg>
