<svg width="12" height="13" viewBox="0 0 12 13" fill="none" xmlns="http://www.w3.org/2000/svg">
<g clip-path="url(#clip0_347_2128)">
<path d="M3.85714 3.65625V4.875H8.14286V3.65625C8.14286 2.53398 7.18393 1.625 6 1.625C4.81607 1.625 3.85714 2.53398 3.85714 3.65625ZM2.14286 4.875V3.65625C2.14286 1.6377 3.87054 0 6 0C8.12946 0 9.85714 1.6377 9.85714 3.65625V4.875H10.2857C11.2312 4.875 12 5.60371 12 6.5V11.375C12 12.2713 11.2312 13 10.2857 13H1.71429C0.76875 13 0 12.2713 0 11.375V6.5C0 5.60371 0.76875 4.875 1.71429 4.875H2.14286Z" fill="#EDEDFF" fill-opacity="0.6"/>
</g>
<defs>
<clipPath id="clip0_347_2128">
<rect width="12" height="13" fill="white"/>
</clipPath>
</defs>
</svg>
